<svg xmlns="http://www.w3.org/2000/svg" xmlns:xlink="http://www.w3.org/1999/xlink" width="500" zoomAndPan="magnify" viewBox="0 0 375 374.999991" height="500" preserveAspectRatio="xMidYMid meet" version="1.0"><defs><g/><clipPath id="0b9191d25b"><path d="M 1.847656 0 L 375 0 L 375 373.152344 L 1.847656 373.152344 Z M 1.847656 0 " clip-rule="nonzero"/></clipPath><clipPath id="d5c21dfbd9"><path d="M 188.425781 0 C 85.382812 0 1.847656 83.53125 1.847656 186.574219 C 1.847656 289.617188 85.382812 373.152344 188.425781 373.152344 C 291.46875 373.152344 375 289.617188 375 186.574219 C 375 83.53125 291.46875 0 188.425781 0 Z M 188.425781 0 " clip-rule="nonzero"/></clipPath><clipPath id="cdd653ebf2"><path d="M 0.847656 0 L 374 0 L 374 373.152344 L 0.847656 373.152344 Z M 0.847656 0 " clip-rule="nonzero"/></clipPath><clipPath id="145b52f3f9"><path d="M 187.425781 0 C 84.382812 0 0.847656 83.53125 0.847656 186.574219 C 0.847656 289.617188 84.382812 373.152344 187.425781 373.152344 C 290.46875 373.152344 374 289.617188 374 186.574219 C 374 83.53125 290.46875 0 187.425781 0 Z M 187.425781 0 " clip-rule="nonzero"/></clipPath><clipPath id="8351963bc5"><rect x="0" width="374" y="0" height="374"/></clipPath><clipPath id="7ab832237d"><path d="M 1.847656 0 L 374.996094 0 L 374.996094 373.148438 L 1.847656 373.148438 Z M 1.847656 0 " clip-rule="nonzero"/></clipPath><clipPath id="1ff1df6755"><path d="M 188.421875 0 C 85.378906 0 1.847656 83.53125 1.847656 186.574219 C 1.847656 289.617188 85.378906 373.148438 188.421875 373.148438 C 291.464844 373.148438 374.996094 289.617188 374.996094 186.574219 C 374.996094 83.53125 291.464844 0 188.421875 0 Z M 188.421875 0 " clip-rule="nonzero"/></clipPath><clipPath id="fdd1e7e3ad"><path d="M 62.78125 62.988281 L 312.011719 62.988281 L 312.011719 312.21875 L 62.78125 312.21875 Z M 62.78125 62.988281 " clip-rule="nonzero"/></clipPath><clipPath id="bd998904f0"><path d="M 187.398438 62.988281 C 118.574219 62.988281 62.78125 118.78125 62.78125 187.601562 C 62.78125 256.425781 118.574219 312.21875 187.398438 312.21875 C 256.21875 312.21875 312.011719 256.425781 312.011719 187.601562 C 312.011719 118.78125 256.21875 62.988281 187.398438 62.988281 Z M 187.398438 62.988281 " clip-rule="nonzero"/></clipPath><clipPath id="205040c41a"><path d="M 0.78125 0.988281 L 250.011719 0.988281 L 250.011719 250.21875 L 0.78125 250.21875 Z M 0.78125 0.988281 " clip-rule="nonzero"/></clipPath><clipPath id="8259394c1a"><path d="M 125.398438 0.988281 C 56.574219 0.988281 0.78125 56.78125 0.78125 125.601562 C 0.78125 194.425781 56.574219 250.21875 125.398438 250.21875 C 194.21875 250.21875 250.011719 194.425781 250.011719 125.601562 C 250.011719 56.78125 194.21875 0.988281 125.398438 0.988281 Z M 125.398438 0.988281 " clip-rule="nonzero"/></clipPath><clipPath id="2305c0d4a8"><rect x="0" width="251" y="0" height="251"/></clipPath><clipPath id="b3f276c1bc"><path d="M 125 96.386719 L 248 96.386719 L 248 159 L 125 159 Z M 125 96.386719 " clip-rule="nonzero"/></clipPath><clipPath id="9e3a61f18c"><path d="M 103.375 190 L 271.375 190 L 271.375 293 L 103.375 293 Z M 103.375 190 " clip-rule="nonzero"/></clipPath><clipPath id="fa62d2f9c2"><rect x="0" width="239" y="0" height="98"/></clipPath><clipPath id="0386fe8696"><rect x="0" width="162" y="0" height="74"/></clipPath><clipPath id="182c2fdb92"><path d="M 21.039062 153.308594 L 52.539062 153.308594 L 52.539062 221.558594 L 21.039062 221.558594 Z M 21.039062 153.308594 " clip-rule="nonzero"/></clipPath><clipPath id="71285570b8"><path d="M 322.328125 153.308594 L 353.828125 153.308594 L 353.828125 221.558594 L 322.328125 221.558594 Z M 322.328125 153.308594 " clip-rule="nonzero"/></clipPath></defs><g clip-path="url(#0b9191d25b)"><g clip-path="url(#d5c21dfbd9)"><g transform="matrix(1, 0, 0, 1, 1, 0)"><g clip-path="url(#8351963bc5)"><g clip-path="url(#cdd653ebf2)"><g clip-path="url(#145b52f3f9)"><path fill="#ffe500" d="M 0.847656 0 L 374 0 L 374 373.152344 L 0.847656 373.152344 Z M 0.847656 0 " fill-opacity="1" fill-rule="nonzero"/></g></g></g></g></g></g><g clip-path="url(#7ab832237d)"><g clip-path="url(#1ff1df6755)"><path stroke-linecap="butt" transform="matrix(0.75, 0, 0, 0.75, 1.848252, 0.000000000000021316)" fill="none" stroke-linejoin="miter" d="M 248.764846 -0.000000000000028422 C 111.374212 -0.000000000000028422 -0.000794924 111.375007 -0.000794924 248.765641 C -0.000794924 386.156275 111.374212 497.531283 248.764846 497.531283 C 386.15548 497.531283 497.530488 386.156275 497.530488 248.765641 C 497.530488 111.375007 386.15548 -0.000000000000028422 248.764846 -0.000000000000028422 Z M 248.764846 -0.000000000000028422 " stroke="#221c16" stroke-width="10" stroke-opacity="1" stroke-miterlimit="4"/></g></g><g clip-path="url(#fdd1e7e3ad)"><g clip-path="url(#bd998904f0)"><g transform="matrix(1, 0, 0, 1, 62, 62)"><g clip-path="url(#2305c0d4a8)"><g clip-path="url(#205040c41a)"><g clip-path="url(#8259394c1a)"><path fill="#221c16" d="M 0.78125 0.988281 L 250.011719 0.988281 L 250.011719 250.21875 L 0.78125 250.21875 Z M 0.78125 0.988281 " fill-opacity="1" fill-rule="nonzero"/></g></g></g></g></g></g><g clip-path="url(#b3f276c1bc)"><path fill="#ffe500" d="M 186.332031 158.8125 C 219.972656 158.8125 247.25 153.308594 247.25 146.523438 C 247.25 142.746094 238.789062 139.363281 225.484375 137.109375 C 223.1875 127.128906 220.894531 117.144531 218.597656 107.164062 C 217.785156 103.617188 215.859375 100.757812 213.335938 98.757812 C 210.910156 96.832031 207.609375 96.429688 204.765625 97.667969 L 180.335938 108.300781 L 168.707031 101.535156 C 163.867188 98.714844 157.628906 101.300781 156.285156 106.742188 C 156.265625 106.824219 156.246094 106.90625 156.226562 106.988281 L 149.382812 136.75 C 134.816406 138.996094 125.414062 142.539062 125.414062 146.519531 C 125.414062 153.308594 152.6875 158.808594 186.332031 158.808594 Z M 186.332031 158.8125 " fill-opacity="1" fill-rule="nonzero"/></g><path fill="#ffe500" d="M 223.273438 175.601562 C 220.316406 171.523438 213.105469 170.148438 206.757812 170.148438 C 202.652344 170.148438 197.734375 171.328125 194.101562 173.65625 C 192.101562 174.9375 189.769531 175.597656 187.390625 175.597656 C 185.015625 175.597656 182.683594 174.9375 180.683594 173.65625 C 177.050781 171.328125 172.132812 170.148438 168.023438 170.148438 C 161.679688 170.148438 154.464844 171.523438 151.507812 175.601562 L 149.734375 175.601562 C 148.707031 175.601562 147.875 176.433594 147.875 177.460938 L 147.875 179.964844 C 147.875 180.992188 148.707031 181.824219 149.734375 181.824219 L 150.324219 181.824219 C 151.710938 188.976562 160.480469 197.265625 168.019531 197.265625 C 176.234375 197.265625 183.984375 191.390625 185.625 184.085938 C 185.691406 183.789062 185.746094 183.503906 185.78125 183.21875 C 185.890625 182.417969 186.582031 181.828125 187.386719 181.828125 C 188.191406 181.828125 188.882812 182.421875 188.992188 183.21875 C 189.035156 183.503906 189.085938 183.792969 189.148438 184.085938 C 190.789062 191.390625 198.539062 197.265625 206.753906 197.265625 C 214.296875 197.265625 223.0625 188.976562 224.449219 181.824219 L 225.042969 181.824219 C 226.066406 181.824219 226.902344 180.992188 226.902344 179.964844 L 226.902344 177.460938 C 226.902344 176.433594 226.066406 175.601562 225.042969 175.601562 L 223.265625 175.601562 Z M 223.273438 175.601562 " fill-opacity="1" fill-rule="nonzero"/><g clip-path="url(#9e3a61f18c)"><path fill="#ffe500" d="M 227.65625 220.261719 C 227.65625 220.261719 242.921875 202.40625 243.574219 190.300781 C 243.574219 190.300781 210.910156 213.597656 193.390625 210.039062 L 188.898438 237.589844 L 187.296875 243.191406 L 181.390625 210.039062 C 163.875 213.597656 131.207031 190.300781 131.207031 190.300781 C 131.863281 202.40625 147.125 220.261719 147.125 220.261719 L 103.375 254.535156 C 105.140625 281.566406 163.734375 294.019531 187.390625 292.195312 C 211.050781 294.019531 269.644531 281.566406 271.40625 254.535156 Z M 227.65625 220.261719 " fill-opacity="1" fill-rule="nonzero"/></g><g transform="matrix(1, 0, 0, 1, 68, 8)"><g clip-path="url(#fa62d2f9c2)"><g fill="#221c16" fill-opacity="1"><g transform="translate(24.298994, 77.335939)"><g><path d="M 10.578125 -7.59375 C 9.296875 -6.613281 8.207031 -5.925781 7.3125 -5.53125 C 6.425781 -5.132812 5.742188 -4.75 5.265625 -4.375 C 4.804688 -4.03125 4.550781 -3.703125 4.5 -3.390625 C 4.457031 -3.078125 4.273438 -2.800781 3.953125 -2.5625 C 3.660156 -2.332031 3.300781 -2.265625 2.875 -2.359375 C 2.457031 -2.453125 1.925781 -2.804688 1.28125 -3.421875 C 0.644531 -4.023438 -0.0390625 -4.675781 -0.78125 -5.375 C -1.53125 -6.070312 -2.328125 -6.867188 -3.171875 -7.765625 C -3.503906 -8.171875 -3.726562 -8.53125 -3.84375 -8.84375 C -3.957031 -9.15625 -3.867188 -9.425781 -3.578125 -9.65625 C -3.304688 -9.863281 -2.988281 -9.941406 -2.625 -9.890625 C -2.257812 -9.847656 -1.773438 -9.695312 -1.171875 -9.4375 C -0.285156 -8.988281 0.722656 -8.601562 1.859375 -8.28125 C 2.992188 -7.957031 4.207031 -7.882812 5.5 -8.0625 C 6.789062 -8.25 8.109375 -8.835938 9.453125 -9.828125 C 10.898438 -10.953125 11.679688 -12.144531 11.796875 -13.40625 C 11.910156 -14.675781 11.625 -15.785156 10.9375 -16.734375 C 10.289062 -17.648438 9.453125 -18.191406 8.421875 -18.359375 C 7.390625 -18.523438 6.242188 -18.492188 4.984375 -18.265625 C 3.722656 -18.046875 2.441406 -17.800781 1.140625 -17.53125 C -0.117188 -17.269531 -1.332031 -17.035156 -2.5 -16.828125 C -3.664062 -16.617188 -4.78125 -16.53125 -5.84375 -16.5625 C -6.914062 -16.59375 -7.914062 -16.820312 -8.84375 -17.25 C -9.769531 -17.675781 -10.628906 -18.398438 -11.421875 -19.421875 C -12.304688 -20.578125 -12.796875 -21.898438 -12.890625 -23.390625 C -12.992188 -24.878906 -12.648438 -26.394531 -11.859375 -27.9375 C -11.078125 -29.488281 -9.835938 -30.921875 -8.140625 -32.234375 C -7.335938 -32.847656 -6.554688 -33.332031 -5.796875 -33.6875 C -5.046875 -34.050781 -4.457031 -34.398438 -4.03125 -34.734375 C -3.625 -35.046875 -3.378906 -35.34375 -3.296875 -35.625 C -3.222656 -35.90625 -3.035156 -36.160156 -2.734375 -36.390625 C -2.410156 -36.640625 -2.066406 -36.71875 -1.703125 -36.625 C -1.347656 -36.539062 -0.816406 -36.191406 -0.109375 -35.578125 C 0.441406 -35.109375 1.035156 -34.597656 1.671875 -34.046875 C 2.304688 -33.503906 2.976562 -32.867188 3.6875 -32.140625 C 4.019531 -31.785156 4.238281 -31.445312 4.34375 -31.125 C 4.445312 -30.8125 4.34375 -30.535156 4.03125 -30.296875 C 3.59375 -29.960938 2.773438 -30.003906 1.578125 -30.421875 C 0.785156 -30.703125 -0.125 -30.929688 -1.15625 -31.109375 C -2.1875 -31.296875 -3.234375 -31.328125 -4.296875 -31.203125 C -5.359375 -31.085938 -6.367188 -30.660156 -7.328125 -29.921875 C -8.578125 -28.953125 -9.289062 -27.898438 -9.46875 -26.765625 C -9.644531 -25.628906 -9.367188 -24.585938 -8.640625 -23.640625 C -8.023438 -22.835938 -7.269531 -22.34375 -6.375 -22.15625 C -5.488281 -21.976562 -4.4375 -21.984375 -3.21875 -22.171875 C -2.007812 -22.359375 -0.628906 -22.59375 0.921875 -22.875 C 2.242188 -23.132812 3.507812 -23.382812 4.71875 -23.625 C 5.925781 -23.875 7.066406 -24.003906 8.140625 -24.015625 C 9.222656 -24.035156 10.238281 -23.859375 11.1875 -23.484375 C 12.144531 -23.117188 13.019531 -22.441406 13.8125 -21.453125 C 15 -20.003906 15.582031 -18.429688 15.5625 -16.734375 C 15.550781 -15.046875 15.09375 -13.394531 14.1875 -11.78125 C 13.28125 -10.175781 12.078125 -8.78125 10.578125 -7.59375 Z M 10.578125 -7.59375 "/></g></g></g><g fill="#221c16" fill-opacity="1"><g transform="translate(52.156017, 57.190045)"><g><path d="M 18.953125 -17.203125 C 19.328125 -17.265625 19.613281 -17.179688 19.8125 -16.953125 C 20.007812 -16.722656 20.1875 -16.378906 20.34375 -15.921875 C 20.75 -14.859375 21.046875 -13.945312 21.234375 -13.1875 C 21.429688 -12.4375 21.582031 -11.738281 21.6875 -11.09375 C 21.757812 -10.53125 21.648438 -10.039062 21.359375 -9.625 C 21.078125 -9.207031 20.316406 -8.734375 19.078125 -8.203125 L 3.515625 -1.515625 C 2.773438 -1.191406 2.210938 -1.019531 1.828125 -1 C 1.453125 -0.976562 1.179688 -1.164062 1.015625 -1.5625 C 0.816406 -2.007812 0.8125 -2.363281 1 -2.625 C 1.1875 -2.894531 1.398438 -3.195312 1.640625 -3.53125 C 1.890625 -3.875 2.023438 -4.363281 2.046875 -5 C 2.066406 -5.644531 1.820312 -6.5625 1.3125 -7.75 L -5.375 -23.328125 C -5.882812 -24.515625 -6.378906 -25.316406 -6.859375 -25.734375 C -7.335938 -26.148438 -7.78125 -26.390625 -8.1875 -26.453125 C -8.601562 -26.515625 -8.972656 -26.566406 -9.296875 -26.609375 C -9.617188 -26.660156 -9.878906 -26.914062 -10.078125 -27.375 C -10.242188 -27.757812 -10.1875 -28.082031 -9.90625 -28.34375 C -9.632812 -28.601562 -9.128906 -28.894531 -8.390625 -29.21875 L 6.59375 -35.703125 C 7.757812 -36.203125 8.554688 -36.441406 8.984375 -36.421875 C 9.410156 -36.410156 9.832031 -36.175781 10.25 -35.71875 C 10.6875 -35.289062 11.132812 -34.769531 11.59375 -34.15625 C 12.0625 -33.539062 12.550781 -32.828125 13.0625 -32.015625 C 13.332031 -31.597656 13.503906 -31.234375 13.578125 -30.921875 C 13.648438 -30.609375 13.550781 -30.332031 13.28125 -30.09375 C 12.976562 -29.832031 12.648438 -29.75 12.296875 -29.84375 C 11.941406 -29.945312 11.515625 -30.191406 11.015625 -30.578125 C 9.742188 -31.492188 8.519531 -32.070312 7.34375 -32.3125 C 6.175781 -32.5625 4.925781 -32.398438 3.59375 -31.828125 L 1.5625 -30.953125 C 0.40625 -30.453125 -0.429688 -30.007812 -0.953125 -29.625 C -1.484375 -29.25 -1.78125 -28.890625 -1.84375 -28.546875 C -1.914062 -28.203125 -1.863281 -27.820312 -1.6875 -27.40625 L 0.203125 -23 C 0.585938 -22.101562 1.070312 -21.664062 1.65625 -21.6875 C 2.238281 -21.707031 2.96875 -21.898438 3.84375 -22.265625 L 4.59375 -22.59375 C 5.507812 -22.988281 6.175781 -23.351562 6.59375 -23.6875 C 7.019531 -24.03125 7.3125 -24.335938 7.46875 -24.609375 C 7.632812 -24.878906 7.765625 -25.113281 7.859375 -25.3125 C 7.960938 -25.519531 8.171875 -25.691406 8.484375 -25.828125 C 9.046875 -26.066406 9.597656 -25.820312 10.140625 -25.09375 L 12.6875 -21.53125 C 13.164062 -20.851562 13.414062 -20.378906 13.4375 -20.109375 C 13.457031 -19.835938 13.316406 -19.578125 13.015625 -19.328125 C 12.660156 -19.054688 12.257812 -19.03125 11.8125 -19.25 C 11.363281 -19.476562 10.835938 -19.769531 10.234375 -20.125 C 9.640625 -20.476562 8.957031 -20.738281 8.1875 -20.90625 C 7.414062 -21.070312 6.519531 -20.9375 5.5 -20.5 L 4.75 -20.171875 C 3.875 -19.804688 3.226562 -19.414062 2.8125 -19 C 2.394531 -18.59375 2.378906 -17.9375 2.765625 -17.03125 L 6.78125 -7.6875 C 6.976562 -7.238281 7.234375 -6.914062 7.546875 -6.71875 C 7.859375 -6.53125 8.335938 -6.5 8.984375 -6.625 C 9.628906 -6.75 10.546875 -7.066406 11.734375 -7.578125 L 14.578125 -8.859375 C 15.597656 -9.296875 16.34375 -9.785156 16.8125 -10.328125 C 17.28125 -10.867188 17.578125 -11.507812 17.703125 -12.25 C 17.828125 -13 17.898438 -13.890625 17.921875 -14.921875 C 17.941406 -15.742188 18.039062 -16.3125 18.21875 -16.625 C 18.40625 -16.9375 18.648438 -17.128906 18.953125 -17.203125 Z M 18.953125 -17.203125 "/></g></g></g><g fill="#221c16" fill-opacity="1"><g transform="translate(84.750326, 44.182196)"><g><path d="M 16.296875 -1.875 C 13.367188 -1.457031 10.726562 -1.695312 8.375 -2.59375 C 6.019531 -3.5 4.082031 -4.96875 2.5625 -7 C 1.039062 -9.03125 0.0664062 -11.523438 -0.359375 -14.484375 C -0.679688 -16.734375 -0.59375 -18.878906 -0.09375 -20.921875 C 0.40625 -22.972656 1.25 -24.828125 2.4375 -26.484375 C 3.625 -28.148438 5.097656 -29.523438 6.859375 -30.609375 C 8.617188 -31.691406 10.582031 -32.390625 12.75 -32.703125 C 14.03125 -32.878906 15.085938 -32.910156 15.921875 -32.796875 C 16.765625 -32.691406 17.472656 -32.679688 18.046875 -32.765625 C 18.523438 -32.835938 18.894531 -32.988281 19.15625 -33.21875 C 19.414062 -33.457031 19.757812 -33.609375 20.1875 -33.671875 C 20.582031 -33.734375 20.910156 -33.640625 21.171875 -33.390625 C 21.429688 -33.140625 21.773438 -32.582031 22.203125 -31.71875 C 22.492188 -31.039062 22.804688 -30.269531 23.140625 -29.40625 C 23.484375 -28.550781 23.847656 -27.503906 24.234375 -26.265625 C 24.390625 -25.785156 24.429688 -25.390625 24.359375 -25.078125 C 24.285156 -24.765625 24.054688 -24.550781 23.671875 -24.4375 C 23.273438 -24.351562 22.925781 -24.445312 22.625 -24.71875 C 22.332031 -24.988281 21.945312 -25.375 21.46875 -25.875 C 20.320312 -27.175781 19.015625 -28.257812 17.546875 -29.125 C 16.078125 -29.988281 14.320312 -30.273438 12.28125 -29.984375 C 10.300781 -29.703125 8.6875 -28.953125 7.4375 -27.734375 C 6.1875 -26.515625 5.304688 -25.007812 4.796875 -23.21875 C 4.285156 -21.425781 4.175781 -19.523438 4.46875 -17.515625 C 4.832031 -14.984375 5.617188 -12.738281 6.828125 -10.78125 C 8.035156 -8.820312 9.554688 -7.347656 11.390625 -6.359375 C 13.222656 -5.378906 15.273438 -5.050781 17.546875 -5.375 C 19.535156 -5.65625 21.160156 -6.269531 22.421875 -7.21875 C 23.679688 -8.164062 24.769531 -9.300781 25.6875 -10.625 C 25.9375 -11 26.210938 -11.164062 26.515625 -11.125 C 26.816406 -11.082031 27.039062 -10.90625 27.1875 -10.59375 C 27.332031 -10.28125 27.3125 -9.875 27.125 -9.375 C 26.78125 -8.457031 26.144531 -7.476562 25.21875 -6.4375 C 24.300781 -5.394531 23.097656 -4.445312 21.609375 -3.59375 C 20.117188 -2.738281 18.347656 -2.164062 16.296875 -1.875 Z M 16.296875 -1.875 "/></g></g></g><g fill="#221c16" fill-opacity="1"><g transform="translate(122.811955, 39.98651)"><g><path d="M 21.9375 -9.546875 L 25 -1.75 C 25.300781 -0.988281 25.628906 -0.394531 25.984375 0.03125 C 26.347656 0.46875 26.679688 0.796875 26.984375 1.015625 C 27.296875 1.242188 27.539062 1.46875 27.71875 1.6875 C 27.894531 1.914062 27.957031 2.234375 27.90625 2.640625 C 27.8125 3.316406 27.125 3.570312 25.84375 3.40625 L 20.375 2.6875 C 19.6875 2.59375 19.175781 2.441406 18.84375 2.234375 C 18.507812 2.035156 18.367188 1.722656 18.421875 1.296875 C 18.460938 0.984375 18.597656 0.722656 18.828125 0.515625 C 19.066406 0.316406 19.304688 0.109375 19.546875 -0.109375 C 19.796875 -0.335938 19.953125 -0.644531 20.015625 -1.03125 C 20.078125 -1.414062 19.976562 -1.941406 19.71875 -2.609375 L 17.75 -7.75 C 17.46875 -8.445312 17.097656 -8.941406 16.640625 -9.234375 C 16.191406 -9.523438 15.390625 -9.816406 14.234375 -10.109375 C 13.117188 -10.398438 12.257812 -10.5625 11.65625 -10.59375 C 11.050781 -10.625 10.703125 -10.289062 10.609375 -9.59375 L 10.0625 -5.4375 C 9.894531 -4.1875 9.898438 -3.253906 10.078125 -2.640625 C 10.253906 -2.023438 10.503906 -1.570312 10.828125 -1.28125 C 11.148438 -1 11.425781 -0.738281 11.65625 -0.5 C 11.882812 -0.269531 11.972656 0.0703125 11.921875 0.53125 C 11.867188 0.894531 11.660156 1.132812 11.296875 1.25 C 10.941406 1.363281 10.351562 1.363281 9.53125 1.25 L 3.796875 0.5 C 2.285156 0.300781 1.578125 -0.132812 1.671875 -0.8125 C 1.722656 -1.269531 1.898438 -1.582031 2.203125 -1.75 C 2.503906 -1.914062 2.847656 -2.09375 3.234375 -2.28125 C 3.628906 -2.476562 4 -2.847656 4.34375 -3.390625 C 4.6875 -3.941406 4.941406 -4.84375 5.109375 -6.09375 L 7.3125 -22.796875 C 7.476562 -24.078125 7.460938 -25.019531 7.265625 -25.625 C 7.078125 -26.226562 6.816406 -26.660156 6.484375 -26.921875 C 6.160156 -27.191406 5.867188 -27.425781 5.609375 -27.625 C 5.359375 -27.832031 5.269531 -28.179688 5.34375 -28.671875 C 5.394531 -29.097656 5.609375 -29.347656 5.984375 -29.421875 C 6.359375 -29.503906 6.941406 -29.492188 7.734375 -29.390625 L 16.28125 -28.265625 C 19.382812 -27.859375 21.890625 -27.070312 23.796875 -25.90625 C 25.703125 -24.738281 27.050781 -23.375 27.84375 -21.8125 C 28.632812 -20.25 28.921875 -18.628906 28.703125 -16.953125 C 28.441406 -14.953125 27.734375 -13.328125 26.578125 -12.078125 C 25.429688 -10.828125 23.882812 -9.984375 21.9375 -9.546875 Z M 16.3125 -11.96875 C 18.3125 -11.582031 19.929688 -11.863281 21.171875 -12.8125 C 22.410156 -13.769531 23.15625 -15.1875 23.40625 -17.0625 C 23.59375 -18.488281 23.421875 -19.835938 22.890625 -21.109375 C 22.367188 -22.390625 21.515625 -23.476562 20.328125 -24.375 C 19.148438 -25.269531 17.664062 -25.835938 15.875 -26.078125 C 14.582031 -26.242188 13.742188 -26.269531 13.359375 -26.15625 C 12.972656 -26.039062 12.75 -25.753906 12.6875 -25.296875 L 11.296875 -14.75 C 11.222656 -14.21875 11.476562 -13.769531 12.0625 -13.40625 C 12.65625 -13.039062 13.351562 -12.738281 14.15625 -12.5 C 14.96875 -12.257812 15.6875 -12.082031 16.3125 -11.96875 Z M 16.3125 -11.96875 "/></g></g></g><g fill="#221c16" fill-opacity="1"><g transform="translate(159.826675, 46.156829)"><g><path d="M 25.53125 1.578125 C 25.84375 1.796875 25.984375 2.054688 25.953125 2.359375 C 25.929688 2.660156 25.8125 3.03125 25.59375 3.46875 C 25.125 4.488281 24.6875 5.332031 24.28125 6 C 23.875 6.675781 23.472656 7.269531 23.078125 7.78125 C 22.734375 8.226562 22.304688 8.492188 21.796875 8.578125 C 21.296875 8.671875 20.425781 8.457031 19.1875 7.9375 L 3.53125 1.46875 C 2.789062 1.15625 2.28125 0.867188 2 0.609375 C 1.71875 0.359375 1.65625 0.0351562 1.8125 -0.359375 C 2 -0.804688 2.253906 -1.054688 2.578125 -1.109375 C 2.898438 -1.171875 3.269531 -1.226562 3.6875 -1.28125 C 4.101562 -1.34375 4.546875 -1.585938 5.015625 -2.015625 C 5.484375 -2.453125 5.960938 -3.269531 6.453125 -4.46875 L 12.953125 -20.140625 C 13.441406 -21.335938 13.671875 -22.25 13.640625 -22.875 C 13.609375 -23.5 13.46875 -23.984375 13.21875 -24.328125 C 12.96875 -24.671875 12.75 -24.972656 12.5625 -25.234375 C 12.375 -25.503906 12.375 -25.863281 12.5625 -26.3125 C 12.726562 -26.707031 13 -26.894531 13.375 -26.875 C 13.757812 -26.863281 14.320312 -26.703125 15.0625 -26.390625 L 30.171875 -20.203125 C 31.347656 -19.710938 32.078125 -19.304688 32.359375 -18.984375 C 32.648438 -18.671875 32.78125 -18.207031 32.75 -17.59375 C 32.738281 -16.976562 32.671875 -16.285156 32.546875 -15.515625 C 32.429688 -14.753906 32.265625 -13.910156 32.046875 -12.984375 C 31.929688 -12.503906 31.785156 -12.128906 31.609375 -11.859375 C 31.441406 -11.585938 31.179688 -11.46875 30.828125 -11.5 C 30.429688 -11.53125 30.144531 -11.703125 29.96875 -12.015625 C 29.789062 -12.335938 29.660156 -12.8125 29.578125 -13.4375 C 29.359375 -15 28.925781 -16.285156 28.28125 -17.296875 C 27.632812 -18.304688 26.640625 -19.09375 25.296875 -19.65625 L 23.265625 -20.5 C 22.097656 -20.976562 21.191406 -21.269531 20.546875 -21.375 C 19.910156 -21.488281 19.441406 -21.445312 19.140625 -21.25 C 18.847656 -21.0625 18.617188 -20.753906 18.453125 -20.328125 L 16.625 -15.90625 C 16.25 -15.007812 16.269531 -14.359375 16.6875 -13.953125 C 17.113281 -13.546875 17.765625 -13.160156 18.640625 -12.796875 L 19.390625 -12.484375 C 20.316406 -12.109375 21.046875 -11.882812 21.578125 -11.8125 C 22.117188 -11.75 22.539062 -11.753906 22.84375 -11.828125 C 23.144531 -11.898438 23.40625 -11.96875 23.625 -12.03125 C 23.84375 -12.101562 24.109375 -12.070312 24.421875 -11.9375 C 24.984375 -11.707031 25.1875 -11.144531 25.03125 -10.25 L 24.28125 -5.953125 C 24.132812 -5.128906 23.96875 -4.617188 23.78125 -4.421875 C 23.601562 -4.222656 23.320312 -4.140625 22.9375 -4.171875 C 22.5 -4.222656 22.203125 -4.488281 22.046875 -4.96875 C 21.890625 -5.457031 21.726562 -6.039062 21.5625 -6.71875 C 21.394531 -7.394531 21.101562 -8.066406 20.6875 -8.734375 C 20.269531 -9.398438 19.546875 -9.945312 18.515625 -10.375 L 17.765625 -10.6875 C 16.890625 -11.050781 16.15625 -11.238281 15.5625 -11.25 C 14.976562 -11.257812 14.5 -10.8125 14.125 -9.90625 L 10.234375 -0.515625 C 10.054688 -0.0546875 10.003906 0.347656 10.078125 0.703125 C 10.160156 1.066406 10.472656 1.4375 11.015625 1.8125 C 11.554688 2.1875 12.425781 2.617188 13.625 3.109375 L 16.515625 4.265625 C 17.546875 4.691406 18.414062 4.882812 19.125 4.84375 C 19.84375 4.800781 20.507812 4.5625 21.125 4.125 C 21.75 3.695312 22.441406 3.125 23.203125 2.40625 C 23.804688 1.863281 24.28125 1.546875 24.625 1.453125 C 24.96875 1.359375 25.269531 1.398438 25.53125 1.578125 Z M 25.53125 1.578125 "/></g></g></g><g fill="#221c16" fill-opacity="1"><g transform="translate(191.865918, 60.538393)"><g><path d="M 28.625 -10.609375 L 17.109375 4.5625 C 16.347656 5.5625 15.890625 6.367188 15.734375 6.984375 C 15.585938 7.609375 15.570312 8.117188 15.6875 8.515625 C 15.8125 8.921875 15.914062 9.285156 16 9.609375 C 16.09375 9.929688 16 10.273438 15.71875 10.640625 C 15.488281 10.941406 15.195312 11.054688 14.84375 10.984375 C 14.488281 10.910156 13.976562 10.617188 13.3125 10.109375 L 8.6875 6.59375 C 7.488281 5.6875 7.097656 4.957031 7.515625 4.40625 C 7.796875 4.039062 8.101562 3.859375 8.4375 3.859375 C 8.78125 3.867188 9.164062 3.878906 9.59375 3.890625 C 10.019531 3.910156 10.515625 3.765625 11.078125 3.453125 C 11.648438 3.148438 12.316406 2.5 13.078125 1.5 L 24.5625 -13.640625 C 24.976562 -14.179688 25.160156 -14.675781 25.109375 -15.125 C 25.066406 -15.582031 24.738281 -16.046875 24.125 -16.515625 C 23.300781 -17.140625 22.5625 -17.507812 21.90625 -17.625 C 21.257812 -17.738281 20.582031 -17.675781 19.875 -17.4375 C 19.164062 -17.195312 18.332031 -16.847656 17.375 -16.390625 C 16.238281 -15.847656 15.460938 -15.738281 15.046875 -16.0625 C 14.710938 -16.3125 14.597656 -16.601562 14.703125 -16.9375 C 14.804688 -17.269531 15.007812 -17.613281 15.3125 -17.96875 C 16.007812 -18.84375 16.632812 -19.554688 17.1875 -20.109375 C 17.738281 -20.660156 18.273438 -21.132812 18.796875 -21.53125 C 19.253906 -21.90625 19.738281 -22.0625 20.25 -22 C 20.757812 -21.9375 21.539062 -21.503906 22.59375 -20.703125 L 35.9375 -10.625 C 37.007812 -9.8125 37.640625 -9.160156 37.828125 -8.671875 C 38.015625 -8.179688 37.992188 -7.664062 37.765625 -7.125 C 37.335938 -6.050781 36.503906 -4.628906 35.265625 -2.859375 C 35.015625 -2.472656 34.738281 -2.1875 34.4375 -2 C 34.132812 -1.8125 33.8125 -1.847656 33.46875 -2.109375 C 33.082031 -2.398438 32.988281 -3.15625 33.1875 -4.375 C 33.375 -5.425781 33.488281 -6.320312 33.53125 -7.0625 C 33.570312 -7.8125 33.453125 -8.488281 33.171875 -9.09375 C 32.890625 -9.707031 32.335938 -10.328125 31.515625 -10.953125 C 30.921875 -11.398438 30.394531 -11.59375 29.9375 -11.53125 C 29.476562 -11.46875 29.039062 -11.160156 28.625 -10.609375 Z M 28.625 -10.609375 "/></g></g></g></g></g><g transform="matrix(1, 0, 0, 1, 113, 301)"><g clip-path="url(#0386fe8696)"><g fill="#221c16" fill-opacity="1"><g transform="translate(9.434519, 37.493555)"><g><path d="M 11.859375 5.359375 C 10.367188 4.742188 9.226562 4.144531 8.4375 3.5625 C 7.65625 2.988281 6.984375 2.585938 6.421875 2.359375 C 5.890625 2.140625 5.472656 2.085938 5.171875 2.203125 C 4.878906 2.316406 4.550781 2.300781 4.1875 2.15625 C 3.84375 2.007812 3.609375 1.726562 3.484375 1.3125 C 3.359375 0.90625 3.398438 0.265625 3.609375 -0.609375 C 3.804688 -1.460938 4.019531 -2.382812 4.25 -3.375 C 4.476562 -4.363281 4.773438 -5.453125 5.140625 -6.640625 C 5.316406 -7.117188 5.507812 -7.488281 5.71875 -7.75 C 5.9375 -8.007812 6.21875 -8.066406 6.5625 -7.921875 C 6.882812 -7.796875 7.113281 -7.5625 7.25 -7.21875 C 7.382812 -6.875 7.492188 -6.378906 7.578125 -5.734375 C 7.640625 -4.742188 7.8125 -3.675781 8.09375 -2.53125 C 8.382812 -1.382812 8.929688 -0.296875 9.734375 0.734375 C 10.535156 1.765625 11.703125 2.601562 13.234375 3.25 C 14.929688 3.945312 16.359375 4.03125 17.515625 3.5 C 18.671875 2.96875 19.488281 2.164062 19.96875 1.09375 C 20.4375 0.0820312 20.484375 -0.910156 20.109375 -1.890625 C 19.734375 -2.867188 19.132812 -3.847656 18.3125 -4.828125 C 17.488281 -5.816406 16.628906 -6.800781 15.734375 -7.78125 C 14.890625 -8.75 14.085938 -9.679688 13.328125 -10.578125 C 12.566406 -11.484375 11.925781 -12.40625 11.40625 -13.34375 C 10.894531 -14.289062 10.59375 -15.273438 10.5 -16.296875 C 10.40625 -17.316406 10.609375 -18.421875 11.109375 -19.609375 C 11.660156 -20.960938 12.550781 -22.050781 13.78125 -22.875 C 15.019531 -23.707031 16.507812 -24.164062 18.25 -24.25 C 19.988281 -24.34375 21.847656 -23.984375 23.828125 -23.171875 C 24.765625 -22.785156 25.578125 -22.359375 26.265625 -21.890625 C 26.953125 -21.421875 27.546875 -21.085938 28.046875 -20.890625 C 28.535156 -20.691406 28.914062 -20.625 29.1875 -20.6875 C 29.46875 -20.757812 29.785156 -20.722656 30.140625 -20.578125 C 30.515625 -20.421875 30.75 -20.164062 30.84375 -19.8125 C 30.945312 -19.46875 30.914062 -18.832031 30.75 -17.90625 C 30.613281 -17.1875 30.46875 -16.414062 30.3125 -15.59375 C 30.15625 -14.769531 29.9375 -13.867188 29.65625 -12.890625 C 29.53125 -12.421875 29.351562 -12.0625 29.125 -11.8125 C 28.90625 -11.570312 28.613281 -11.523438 28.25 -11.671875 C 27.738281 -11.878906 27.367188 -12.609375 27.140625 -13.859375 C 26.972656 -14.679688 26.710938 -15.585938 26.359375 -16.578125 C 26.003906 -17.566406 25.503906 -18.488281 24.859375 -19.34375 C 24.222656 -20.195312 23.347656 -20.851562 22.234375 -21.3125 C 20.765625 -21.914062 19.492188 -22.007812 18.421875 -21.59375 C 17.359375 -21.175781 16.601562 -20.410156 16.15625 -19.296875 C 15.769531 -18.367188 15.710938 -17.472656 15.984375 -16.609375 C 16.265625 -15.753906 16.789062 -14.847656 17.5625 -13.890625 C 18.332031 -12.941406 19.234375 -11.863281 20.265625 -10.65625 C 21.160156 -9.644531 22.015625 -8.675781 22.828125 -7.75 C 23.640625 -6.820312 24.320312 -5.894531 24.875 -4.96875 C 25.425781 -4.039062 25.78125 -3.070312 25.9375 -2.0625 C 26.09375 -1.050781 25.941406 0.0351562 25.484375 1.203125 C 24.828125 2.972656 23.757812 4.273438 22.28125 5.109375 C 20.8125 5.941406 19.148438 6.363281 17.296875 6.375 C 15.453125 6.394531 13.640625 6.054688 11.859375 5.359375 Z M 11.859375 5.359375 "/></g></g></g><g fill="#221c16" fill-opacity="1"><g transform="translate(45.00025, 50.788344)"><g><path d="M 15.734375 2.5 C 11.953125 2 9.195312 0.515625 7.46875 -1.953125 C 5.738281 -4.429688 5.140625 -7.742188 5.671875 -11.890625 L 7.078125 -22.65625 C 7.242188 -23.90625 7.234375 -24.84375 7.046875 -25.46875 C 6.859375 -26.09375 6.601562 -26.546875 6.28125 -26.828125 C 5.957031 -27.117188 5.679688 -27.378906 5.453125 -27.609375 C 5.222656 -27.847656 5.140625 -28.191406 5.203125 -28.640625 C 5.253906 -29.046875 5.457031 -29.296875 5.8125 -29.390625 C 6.175781 -29.484375 6.769531 -29.476562 7.59375 -29.375 L 13.3125 -28.625 C 14.820312 -28.4375 15.535156 -28 15.453125 -27.3125 C 15.390625 -26.863281 15.207031 -26.550781 14.90625 -26.375 C 14.613281 -26.207031 14.273438 -26.023438 13.890625 -25.828125 C 13.503906 -25.640625 13.140625 -25.269531 12.796875 -24.71875 C 12.453125 -24.164062 12.195312 -23.265625 12.03125 -22.015625 L 10.515625 -10.359375 C 10.128906 -7.398438 10.53125 -5.046875 11.71875 -3.296875 C 12.914062 -1.546875 14.769531 -0.507812 17.28125 -0.1875 C 19.863281 0.144531 21.945312 -0.488281 23.53125 -2.09375 C 25.113281 -3.695312 26.09375 -5.910156 26.46875 -8.734375 L 28.03125 -21.421875 C 28.132812 -22.210938 28.097656 -22.828125 27.921875 -23.265625 C 27.742188 -23.710938 27.519531 -24.070312 27.25 -24.34375 C 26.976562 -24.613281 26.742188 -24.851562 26.546875 -25.0625 C 26.347656 -25.28125 26.269531 -25.570312 26.3125 -25.9375 C 26.363281 -26.332031 26.550781 -26.582031 26.875 -26.6875 C 27.207031 -26.800781 27.722656 -26.8125 28.421875 -26.71875 L 31.703125 -26.296875 C 32.378906 -26.203125 32.863281 -26.0625 33.15625 -25.875 C 33.457031 -25.6875 33.582031 -25.394531 33.53125 -25 C 33.488281 -24.664062 33.335938 -24.410156 33.078125 -24.234375 C 32.828125 -24.066406 32.53125 -23.890625 32.1875 -23.703125 C 31.84375 -23.515625 31.53125 -23.226562 31.25 -22.84375 C 30.96875 -22.457031 30.773438 -21.867188 30.671875 -21.078125 L 29.078125 -9.203125 C 28.523438 -4.972656 27.160156 -1.835938 24.984375 0.203125 C 22.804688 2.242188 19.722656 3.007812 15.734375 2.5 Z M 15.734375 2.5 "/></g></g></g><g fill="#221c16" fill-opacity="1"><g transform="translate(88.31066, 54.580982)"><g><path d="M 18.546875 -15.125 L 23.59375 -8.4375 C 24.09375 -7.78125 24.578125 -7.296875 25.046875 -6.984375 C 25.515625 -6.671875 25.921875 -6.445312 26.265625 -6.3125 C 26.617188 -6.175781 26.910156 -6.023438 27.140625 -5.859375 C 27.367188 -5.691406 27.515625 -5.40625 27.578125 -5 C 27.671875 -4.320312 27.078125 -3.890625 25.796875 -3.703125 L 20.34375 -2.921875 C 19.65625 -2.828125 19.125 -2.832031 18.75 -2.9375 C 18.375 -3.039062 18.15625 -3.304688 18.09375 -3.734375 C 18.050781 -4.046875 18.113281 -4.328125 18.28125 -4.578125 C 18.445312 -4.835938 18.613281 -5.109375 18.78125 -5.390625 C 18.957031 -5.679688 19.023438 -6.019531 18.984375 -6.40625 C 18.953125 -6.789062 18.722656 -7.273438 18.296875 -7.859375 L 14.984375 -12.25 C 14.535156 -12.851562 14.050781 -13.226562 13.53125 -13.375 C 13.019531 -13.53125 12.171875 -13.597656 10.984375 -13.578125 C 9.828125 -13.566406 8.953125 -13.492188 8.359375 -13.359375 C 7.765625 -13.222656 7.519531 -12.804688 7.625 -12.109375 L 8.21875 -7.96875 C 8.394531 -6.71875 8.648438 -5.816406 8.984375 -5.265625 C 9.316406 -4.722656 9.679688 -4.351562 10.078125 -4.15625 C 10.472656 -3.96875 10.8125 -3.789062 11.09375 -3.625 C 11.375 -3.46875 11.550781 -3.160156 11.625 -2.703125 C 11.675781 -2.335938 11.539062 -2.050781 11.21875 -1.84375 C 10.90625 -1.644531 10.335938 -1.484375 9.515625 -1.359375 L 3.796875 -0.546875 C 2.285156 -0.328125 1.484375 -0.554688 1.390625 -1.234375 C 1.316406 -1.691406 1.398438 -2.039062 1.640625 -2.28125 C 1.890625 -2.519531 2.175781 -2.785156 2.5 -3.078125 C 2.820312 -3.367188 3.070312 -3.828125 3.25 -4.453125 C 3.4375 -5.078125 3.441406 -6.015625 3.265625 -7.265625 L 0.875 -23.9375 C 0.6875 -25.207031 0.414062 -26.101562 0.0625 -26.625 C -0.28125 -27.15625 -0.644531 -27.503906 -1.03125 -27.671875 C -1.425781 -27.847656 -1.769531 -28 -2.0625 -28.125 C -2.351562 -28.257812 -2.535156 -28.566406 -2.609375 -29.046875 C -2.671875 -29.472656 -2.53125 -29.773438 -2.1875 -29.953125 C -1.851562 -30.128906 -1.285156 -30.273438 -0.484375 -30.390625 L 8.046875 -31.609375 C 11.140625 -32.054688 13.757812 -31.976562 15.90625 -31.375 C 18.050781 -30.769531 19.71875 -29.820312 20.90625 -28.53125 C 22.09375 -27.238281 22.804688 -25.753906 23.046875 -24.078125 C 23.335938 -22.085938 23.097656 -20.332031 22.328125 -18.8125 C 21.554688 -17.289062 20.296875 -16.0625 18.546875 -15.125 Z M 12.46875 -15.9375 C 14.5 -16.113281 15.984375 -16.828125 16.921875 -18.078125 C 17.859375 -19.328125 18.191406 -20.890625 17.921875 -22.765625 C 17.722656 -24.191406 17.195312 -25.441406 16.34375 -26.515625 C 15.488281 -27.597656 14.367188 -28.410156 12.984375 -28.953125 C 11.597656 -29.503906 10.015625 -29.648438 8.234375 -29.390625 C 6.941406 -29.203125 6.125 -29 5.78125 -28.78125 C 5.4375 -28.570312 5.300781 -28.242188 5.375 -27.796875 L 6.875 -17.265625 C 6.957031 -16.722656 7.332031 -16.351562 8 -16.15625 C 8.664062 -15.96875 9.414062 -15.867188 10.25 -15.859375 C 11.09375 -15.847656 11.832031 -15.875 12.46875 -15.9375 Z M 12.46875 -15.9375 "/></g></g></g><g fill="#221c16" fill-opacity="1"><g transform="translate(128.660733, 46.995882)"><g><path d="M 13.265625 -31.75 C 13.523438 -31.332031 13.6875 -30.96875 13.75 -30.65625 C 13.820312 -30.351562 13.71875 -30.082031 13.4375 -29.84375 C 13.15625 -29.59375 12.832031 -29.515625 12.46875 -29.609375 C 12.113281 -29.710938 11.691406 -29.957031 11.203125 -30.34375 C 9.960938 -31.289062 8.757812 -31.894531 7.59375 -32.15625 C 6.425781 -32.414062 5.15625 -32.265625 3.78125 -31.703125 L 1.9375 -30.9375 C 0.78125 -30.457031 -0.0625 -30.023438 -0.59375 -29.640625 C -1.125 -29.265625 -1.425781 -28.90625 -1.5 -28.5625 C -1.570312 -28.21875 -1.515625 -27.820312 -1.328125 -27.375 L 0.640625 -22.640625 C 1.015625 -21.742188 1.492188 -21.296875 2.078125 -21.296875 C 2.671875 -21.304688 3.40625 -21.492188 4.28125 -21.859375 L 5.265625 -22.265625 C 6.191406 -22.660156 6.863281 -23.023438 7.28125 -23.359375 C 7.707031 -23.691406 8.003906 -23.992188 8.171875 -24.265625 C 8.335938 -24.535156 8.472656 -24.765625 8.578125 -24.953125 C 8.679688 -25.148438 8.894531 -25.316406 9.21875 -25.453125 C 9.53125 -25.585938 9.8125 -25.582031 10.0625 -25.4375 C 10.3125 -25.289062 10.566406 -25.039062 10.828125 -24.6875 L 13.34375 -21.125 C 13.8125 -20.445312 14.054688 -19.960938 14.078125 -19.671875 C 14.109375 -19.390625 13.96875 -19.132812 13.65625 -18.90625 C 13.269531 -18.625 12.859375 -18.597656 12.421875 -18.828125 C 11.984375 -19.066406 11.46875 -19.367188 10.875 -19.734375 C 10.289062 -20.097656 9.613281 -20.363281 8.84375 -20.53125 C 8.082031 -20.695312 7.1875 -20.5625 6.15625 -20.125 L 5.171875 -19.71875 C 4.296875 -19.351562 3.640625 -18.972656 3.203125 -18.578125 C 2.773438 -18.191406 2.757812 -17.53125 3.15625 -16.59375 L 5.984375 -9.75 C 6.472656 -8.582031 6.945312 -7.773438 7.40625 -7.328125 C 7.863281 -6.890625 8.304688 -6.625 8.734375 -6.53125 C 9.160156 -6.445312 9.53125 -6.363281 9.84375 -6.28125 C 10.164062 -6.195312 10.414062 -5.941406 10.59375 -5.515625 C 10.738281 -5.171875 10.679688 -4.859375 10.421875 -4.578125 C 10.160156 -4.296875 9.644531 -4 8.875 -3.6875 L 3.53125 -1.46875 C 2.125 -0.882812 1.289062 -0.910156 1.03125 -1.546875 C 0.851562 -1.972656 0.851562 -2.332031 1.03125 -2.625 C 1.207031 -2.914062 1.414062 -3.242188 1.65625 -3.609375 C 1.894531 -3.972656 2.023438 -4.476562 2.046875 -5.125 C 2.078125 -5.769531 1.847656 -6.675781 1.359375 -7.84375 L -5.09375 -23.40625 C -5.582031 -24.59375 -6.0625 -25.398438 -6.53125 -25.828125 C -7.007812 -26.253906 -7.457031 -26.5 -7.875 -26.5625 C -8.289062 -26.625 -8.65625 -26.679688 -8.96875 -26.734375 C -9.289062 -26.785156 -9.546875 -27.039062 -9.734375 -27.5 C -9.898438 -27.894531 -9.84375 -28.21875 -9.5625 -28.46875 C -9.28125 -28.726562 -8.769531 -29.015625 -8.03125 -29.328125 L 6.875 -35.546875 C 8.019531 -36.023438 8.8125 -36.253906 9.25 -36.234375 C 9.695312 -36.210938 10.125 -35.976562 10.53125 -35.53125 C 10.9375 -35.082031 11.375 -34.550781 11.84375 -33.9375 C 12.3125 -33.320312 12.785156 -32.59375 13.265625 -31.75 Z M 13.265625 -31.75 "/></g></g></g></g></g><g clip-path="url(#182c2fdb92)"><path fill="#000000" d="M 52.117188 191.671875 L 52.117188 191.667969 C 52.113281 191.585938 52.109375 191.503906 52.105469 191.417969 C 52.101562 191.316406 52.097656 191.21875 52.089844 191.117188 C 52.085938 191.011719 52.078125 190.902344 52.074219 190.796875 C 52.0625 190.609375 52.054688 190.421875 52.042969 190.234375 C 52.042969 190.214844 52.042969 190.195312 52.039062 190.179688 C 51.679688 183.972656 50.867188 177.933594 49.863281 172.996094 C 48.609375 167.585938 45.140625 157.484375 40.25 154.378906 C 40.183594 154.335938 40.117188 154.296875 40.046875 154.253906 C 39.988281 154.21875 39.929688 154.1875 39.871094 154.152344 C 39.863281 154.148438 39.855469 154.144531 39.847656 154.140625 C 39.828125 154.128906 39.804688 154.117188 39.785156 154.109375 C 39.773438 154.101562 39.765625 154.097656 39.753906 154.09375 C 39.734375 154.082031 39.714844 154.070312 39.691406 154.058594 C 39.683594 154.054688 39.675781 154.050781 39.667969 154.046875 C 39.640625 154.035156 39.609375 154.019531 39.582031 154.007812 C 39.574219 154.003906 39.566406 154 39.558594 153.996094 C 39.535156 153.984375 39.515625 153.976562 39.492188 153.964844 C 39.480469 153.960938 39.472656 153.957031 39.460938 153.949219 C 39.441406 153.941406 39.421875 153.933594 39.402344 153.925781 C 39.390625 153.921875 39.378906 153.914062 39.371094 153.910156 C 39.34375 153.902344 39.320312 153.890625 39.296875 153.882812 C 39.292969 153.878906 39.289062 153.878906 39.28125 153.875 C 38.785156 153.671875 38.257812 153.546875 37.714844 153.53125 C 33.148438 153.375 30.074219 156.65625 27.988281 160.3125 C 25.714844 164.222656 24.183594 168.484375 23.109375 172.789062 C 22.898438 173.640625 22.707031 174.496094 22.53125 175.347656 C 22.523438 175.378906 22.519531 175.410156 22.511719 175.4375 C 22.492188 175.535156 22.472656 175.628906 22.453125 175.726562 C 22.445312 175.765625 22.4375 175.804688 22.429688 175.847656 C 22.40625 175.960938 22.382812 176.074219 22.363281 176.1875 C 22.359375 176.203125 22.355469 176.21875 22.351562 176.234375 C 21.9375 178.386719 21.628906 180.542969 21.414062 182.703125 C 21.414062 182.710938 21.414062 182.71875 21.414062 182.726562 C 21.394531 182.902344 21.378906 183.078125 21.363281 183.253906 C 21.363281 183.257812 21.363281 183.257812 21.363281 183.261719 C 21.191406 185.128906 21.097656 186.996094 21.070312 188.859375 C 21.070312 188.863281 21.070312 188.863281 21.070312 188.863281 C 21.070312 189.007812 21.066406 189.152344 21.066406 189.296875 C 21.066406 189.320312 21.066406 189.339844 21.066406 189.363281 C 21.039062 193.210938 21.3125 197.035156 21.863281 200.796875 C 21.863281 200.796875 21.863281 200.800781 21.863281 200.800781 C 21.875 200.875 21.882812 200.949219 21.894531 201.023438 C 21.898438 201.035156 21.898438 201.046875 21.902344 201.054688 C 21.933594 201.265625 21.964844 201.472656 21.996094 201.679688 C 22.257812 203.335938 22.570312 204.980469 22.9375 206.605469 C 22.949219 206.664062 22.960938 206.722656 22.976562 206.777344 C 22.980469 206.808594 22.988281 206.835938 22.996094 206.863281 C 23.011719 206.933594 23.027344 207.007812 23.042969 207.082031 C 23.054688 207.117188 23.0625 207.152344 23.070312 207.1875 C 23.078125 207.230469 23.089844 207.273438 23.097656 207.316406 C 23.277344 208.074219 23.464844 208.832031 23.664062 209.582031 C 23.671875 209.601562 23.675781 209.621094 23.679688 209.640625 C 23.722656 209.804688 23.769531 209.964844 23.8125 210.125 C 23.859375 210.300781 23.910156 210.476562 23.957031 210.652344 C 23.957031 210.65625 23.960938 210.660156 23.960938 210.664062 C 24.023438 210.890625 24.089844 211.117188 24.15625 211.339844 C 24.160156 211.355469 24.164062 211.367188 24.167969 211.378906 C 24.21875 211.558594 24.269531 211.734375 24.324219 211.910156 C 24.324219 211.914062 24.324219 211.917969 24.324219 211.921875 C 24.382812 212.109375 24.4375 212.296875 24.496094 212.484375 C 24.515625 212.535156 24.535156 212.589844 24.554688 212.644531 C 24.886719 213.605469 25.246094 214.664062 25.679688 215.710938 C 25.683594 215.726562 25.691406 215.738281 25.695312 215.753906 C 25.71875 215.808594 25.742188 215.863281 25.765625 215.921875 C 25.78125 215.957031 25.796875 215.992188 25.8125 216.027344 C 25.832031 216.074219 25.851562 216.117188 25.871094 216.164062 C 25.894531 216.214844 25.917969 216.265625 25.941406 216.316406 C 25.957031 216.347656 25.972656 216.382812 25.988281 216.417969 C 26.011719 216.472656 26.039062 216.53125 26.066406 216.585938 C 26.082031 216.625 26.101562 216.660156 26.117188 216.699219 C 26.128906 216.71875 26.136719 216.738281 26.144531 216.757812 C 26.144531 216.757812 26.148438 216.757812 26.148438 216.757812 C 27.058594 218.648438 28.304688 220.351562 30.242188 221.144531 C 30.808594 221.328125 31.417969 221.339844 32.007812 221.390625 C 32.910156 221.445312 33.816406 221.492188 34.71875 221.5 C 35.261719 221.492188 35.804688 221.480469 36.347656 221.464844 C 36.515625 221.457031 36.683594 221.453125 36.847656 221.445312 C 36.867188 221.445312 36.882812 221.445312 36.902344 221.445312 C 37.058594 221.4375 37.21875 221.433594 37.375 221.425781 C 37.398438 221.425781 37.421875 221.421875 37.449219 221.421875 C 37.601562 221.414062 37.757812 221.40625 37.910156 221.398438 C 37.9375 221.398438 37.960938 221.398438 37.988281 221.394531 C 38.140625 221.386719 38.296875 221.378906 38.453125 221.371094 C 38.464844 221.371094 38.476562 221.367188 38.488281 221.367188 C 38.488281 221.367188 38.488281 221.367188 38.492188 221.367188 C 40.199219 221.265625 41.902344 221.101562 43.59375 220.835938 C 45.222656 220.554688 46.929688 220.085938 48.171875 219 C 48.828125 218.386719 49.152344 217.550781 49.492188 216.757812 C 51.941406 210.179688 52.539062 200.824219 52.117188 191.671875 Z M 51.042969 205.339844 C 50.898438 204.4375 50.675781 203.546875 50.332031 202.683594 C 49.800781 201.429688 49.132812 199.972656 47.734375 199.421875 C 45.28125 198.667969 42.496094 200.074219 41.21875 202.117188 C 40.609375 203.007812 40.390625 204.085938 40.496094 205.117188 C 38.617188 204.769531 36.523438 205.3125 35.339844 206.742188 C 35.28125 206.636719 35.21875 206.542969 35.171875 206.464844 C 32.265625 202.484375 25.355469 205.230469 26.296875 209.953125 C 26.421875 210.625 26.730469 211.292969 27.179688 211.847656 C 26.558594 211.628906 25.976562 211.296875 25.425781 210.960938 C 25.160156 210.800781 24.90625 210.625 24.660156 210.4375 C 24.316406 209.203125 24.007812 207.9375 23.734375 206.675781 C 23.894531 206.503906 24.050781 206.332031 24.203125 206.15625 C 26.320312 203.554688 27.863281 201.570312 31.710938 202.578125 C 33.003906 202.917969 34.476562 203.359375 35.707031 202.621094 C 36.878906 201.964844 37.363281 200.679688 38.164062 199.691406 C 39.472656 198.15625 41.53125 197.433594 43.542969 197.253906 C 45.636719 197.058594 47.8125 197.246094 49.359375 195.566406 C 50.132812 194.8125 50.785156 193.953125 51.351562 193.042969 C 51.488281 197.175781 51.410156 201.28125 51.042969 205.339844 Z M 40.566406 155.414062 C 41.285156 156.003906 41.902344 156.679688 42.453125 157.40625 C 42.175781 157.777344 41.882812 158.140625 41.5625 158.476562 C 39.917969 160.195312 37.761719 161.335938 36.167969 163.09375 C 33.390625 166.277344 33.089844 170.746094 30.738281 174.128906 C 28.636719 177.199219 25.578125 180.496094 22.269531 182.285156 C 22.488281 180.074219 22.8125 177.867188 23.253906 175.679688 C 24.714844 174.632812 26.085938 173.390625 27.027344 171.847656 C 28.835938 169.039062 29.074219 165.433594 31.285156 162.800781 C 33.507812 160.253906 37.050781 159.136719 38.953125 156.21875 C 39.269531 155.773438 39.546875 155.300781 39.789062 154.8125 C 40.0625 154.992188 40.324219 155.199219 40.566406 155.417969 Z M 28.199219 161.488281 C 30.027344 158.121094 32.648438 154.34375 36.859375 154.058594 C 37.042969 154.027344 37.226562 154.011719 37.410156 154.011719 C 37.976562 154.011719 38.523438 154.152344 39.035156 154.386719 C 38.851562 154.785156 38.640625 155.171875 38.410156 155.542969 C 36.105469 159.445312 31.0625 160.335938 29.183594 164.523438 C 27.148438 168.871094 27.285156 171.546875 23.476562 174.632812 C 24.472656 170.117188 25.996094 165.6875 28.199219 161.484375 Z M 27.707031 178.824219 C 30.691406 176.007812 32.882812 172.472656 34.125 168.53125 C 35.984375 162.984375 37.660156 162.71875 41.792969 159.195312 C 42.1875 158.828125 42.546875 158.425781 42.882812 158.003906 C 43.644531 159.117188 44.277344 160.324219 44.886719 161.515625 C 44.945312 161.625 45 161.738281 45.054688 161.847656 C 43.773438 162.503906 42.574219 163.304688 41.542969 164.3125 C 38.09375 167.324219 37.804688 172.027344 36.269531 175.964844 C 33.828125 181.808594 27.835938 186.542969 21.90625 188.609375 C 21.941406 186.726562 22.035156 184.832031 22.207031 182.941406 C 24.3125 182.023438 26.089844 180.414062 27.707031 178.824219 Z M 37.136719 175.894531 C 39.195312 170.054688 39.074219 165.757812 45.324219 162.382812 C 48.988281 169.855469 50.265625 178.101562 50.921875 186.078125 C 50.933594 186.191406 50.941406 186.304688 50.953125 186.417969 C 49.722656 188.414062 48.316406 190.367188 46.132812 191.363281 C 44.867188 191.945312 43.445312 191.753906 42.097656 191.746094 C 38.402344 191.601562 36.453125 193.742188 34.210938 196.179688 C 33.367188 197.09375 32.355469 198.007812 30.980469 197.839844 C 29.308594 197.664062 27.660156 197.117188 25.996094 197.660156 C 24.597656 198.03125 23.445312 198.886719 22.539062 199.933594 C 22.316406 198.328125 22.160156 196.910156 22.074219 195.824219 C 21.9375 193.617188 21.875 191.378906 21.898438 189.128906 C 28.238281 187.203125 34.714844 181.9375 37.136719 175.894531 Z M 23.101562 200.277344 C 24.109375 198.96875 25.679688 198.011719 27.402344 197.886719 C 28.40625 197.816406 29.378906 198.097656 30.363281 198.234375 C 31.757812 198.46875 33.113281 198.152344 34.105469 197.152344 C 37.332031 193.96875 38.417969 191.777344 43.609375 192.238281 C 45.015625 192.300781 46.4375 191.976562 47.609375 191.191406 C 49.027344 190.238281 50.101562 188.9375 51.042969 187.539062 C 51.152344 188.945312 51.238281 190.351562 51.300781 191.753906 C 50.589844 193.117188 49.710938 194.394531 48.582031 195.457031 C 47.609375 196.464844 46.160156 196.660156 44.8125 196.699219 C 42.078125 196.792969 39.074219 197.445312 37.363281 199.660156 C 36.785156 200.425781 36.378906 201.320312 35.648438 201.972656 C 34.9375 202.652344 33.875 202.683594 32.957031 202.417969 C 28.019531 200.992188 26.382812 202.425781 23.570312 205.902344 C 23.203125 204.140625 22.902344 202.410156 22.667969 200.828125 C 22.8125 200.644531 22.957031 200.460938 23.101562 200.277344 Z M 27.8125 212.488281 C 28.394531 212.957031 29.105469 213.257812 29.894531 213.273438 C 30.773438 213.277344 31.644531 212.796875 31.992188 212.019531 C 32.539062 210.976562 32.632812 209.066406 31.121094 208.746094 C 29.957031 208.476562 28.84375 209.527344 29.394531 210.609375 C 29.683594 211.109375 30.546875 211.390625 31.019531 210.984375 C 31.132812 210.703125 30.648438 210.621094 30.449219 210.707031 C 30.308594 210.785156 30.125 210.53125 30.082031 210.417969 C 29.996094 210.183594 30.015625 209.910156 30.113281 209.679688 C 30.292969 209.242188 30.882812 208.921875 31.246094 209.382812 C 31.898438 210.238281 31.542969 211.964844 30.667969 212.570312 C 30.101562 212.964844 29.453125 212.859375 28.886719 212.550781 C 28.863281 212.539062 28.84375 212.527344 28.820312 212.515625 C 28.816406 212.511719 28.808594 212.507812 28.804688 212.507812 C 28.78125 212.492188 28.761719 212.480469 28.738281 212.464844 C 28.734375 212.460938 28.726562 212.457031 28.722656 212.457031 C 28.699219 212.441406 28.675781 212.425781 28.65625 212.410156 C 28.648438 212.40625 28.644531 212.40625 28.640625 212.402344 C 28.617188 212.386719 28.59375 212.371094 28.574219 212.355469 C 28.566406 212.351562 28.5625 212.347656 28.558594 212.34375 C 28.535156 212.328125 28.515625 212.3125 28.492188 212.296875 C 28.488281 212.292969 28.484375 212.289062 28.480469 212.285156 C 28.457031 212.269531 28.433594 212.25 28.414062 212.234375 C 28.410156 212.230469 28.40625 212.230469 28.40625 212.226562 C 28.355469 212.1875 28.308594 212.148438 28.261719 212.105469 C 28.113281 211.96875 27.976562 211.824219 27.863281 211.683594 C 26.691406 210.179688 26.648438 207.898438 28.027344 206.507812 C 29.800781 204.613281 32.804688 204.367188 34.433594 206.578125 C 34.5625 206.761719 34.667969 206.960938 34.753906 207.164062 C 34.789062 207.257812 34.816406 207.351562 34.875 207.433594 C 33.980469 209 34.144531 211.292969 35.425781 212.527344 C 35.421875 212.683594 35.402344 212.84375 35.378906 212.996094 C 35.097656 214.3125 33.949219 215.351562 32.675781 215.859375 C 29.691406 217.066406 27.113281 214.792969 25.316406 212.597656 C 25.175781 212.175781 25.042969 211.746094 24.914062 211.3125 C 25.804688 211.871094 26.777344 212.316406 27.8125 212.488281 Z M 37.410156 213.386719 C 38.230469 213.460938 39.132812 213.320312 39.839844 212.910156 C 39.90625 213.320312 39.847656 213.761719 39.71875 214.144531 C 38.210938 218.097656 32.730469 219.078125 28.941406 217.679688 C 28.226562 217.433594 27.566406 217.082031 26.953125 216.660156 C 26.550781 215.863281 26.171875 214.980469 25.824219 214.042969 C 26.007812 214.226562 26.195312 214.410156 26.382812 214.589844 C 27.414062 215.554688 28.703125 216.320312 30.144531 216.5625 C 32.492188 216.949219 35.125 215.671875 35.976562 213.535156 C 36.035156 213.371094 36.082031 213.199219 36.113281 213.023438 C 36.488281 213.222656 36.917969 213.351562 37.414062 213.386719 Z M 33.386719 221.03125 C 32.199219 220.921875 30.847656 221.097656 29.839844 220.375 C 28.957031 219.789062 28.152344 218.804688 27.429688 217.546875 C 28.601562 218.140625 29.925781 218.5 31.21875 218.660156 C 34.027344 218.914062 37.226562 218.296875 39.15625 216.226562 C 40.050781 215.277344 40.824219 214.007812 40.511719 212.699219 C 40.488281 212.621094 40.460938 212.535156 40.429688 212.445312 C 40.5625 212.304688 40.679688 212.148438 40.777344 211.972656 C 41.386719 210.964844 40.945312 209.398438 39.722656 209.023438 C 38.726562 208.703125 37.625 209.507812 37.664062 210.492188 C 37.679688 210.765625 37.84375 211.039062 38.109375 211.152344 C 38.285156 211.222656 38.578125 211.21875 38.664062 211.027344 C 38.710938 210.828125 38.410156 210.804688 38.398438 210.597656 C 38.332031 210.210938 38.550781 209.800781 38.859375 209.554688 C 39.550781 209.046875 40.152344 209.9375 40.28125 210.511719 C 40.398438 210.96875 40.308594 211.457031 40.066406 211.863281 C 40.054688 211.878906 40.046875 211.894531 40.039062 211.910156 C 40.035156 211.914062 40.03125 211.917969 40.027344 211.921875 C 40.015625 211.941406 40.003906 211.957031 39.992188 211.976562 C 39.992188 211.976562 39.992188 211.980469 39.988281 211.980469 C 39.976562 212 39.960938 212.019531 39.949219 212.039062 C 39.945312 212.042969 39.945312 212.046875 39.941406 212.046875 C 39.929688 212.0625 39.917969 212.078125 39.90625 212.09375 C 39.898438 212.101562 39.894531 212.105469 39.890625 212.113281 C 39.878906 212.125 39.871094 212.136719 39.859375 212.148438 C 39.855469 212.15625 39.847656 212.160156 39.84375 212.167969 C 39.832031 212.179688 39.824219 212.191406 39.8125 212.199219 C 39.808594 212.207031 39.800781 212.214844 39.796875 212.21875 C 39.785156 212.230469 39.773438 212.242188 39.761719 212.253906 C 39.757812 212.257812 39.75 212.265625 39.746094 212.269531 C 39.730469 212.285156 39.710938 212.300781 39.695312 212.316406 C 39.074219 212.886719 38.136719 213.046875 37.304688 212.929688 C 36.839844 212.851562 36.457031 212.667969 36.140625 212.410156 C 36.125 212.398438 36.109375 212.382812 36.097656 212.371094 C 36.082031 212.359375 36.070312 212.351562 36.058594 212.339844 C 36.042969 212.324219 36.027344 212.308594 36.011719 212.296875 C 35.992188 212.277344 35.972656 212.257812 35.957031 212.242188 C 35.945312 212.230469 35.933594 212.21875 35.921875 212.207031 C 35.910156 212.191406 35.894531 212.179688 35.882812 212.164062 C 35.875 212.15625 35.863281 212.144531 35.855469 212.132812 C 35.832031 212.105469 35.808594 212.082031 35.789062 212.050781 C 35.78125 212.042969 35.773438 212.035156 35.765625 212.023438 C 35.75 212.007812 35.738281 211.992188 35.726562 211.976562 C 35.71875 211.964844 35.710938 211.957031 35.703125 211.945312 C 35.679688 211.914062 35.660156 211.882812 35.636719 211.847656 C 35.632812 211.839844 35.625 211.832031 35.621094 211.824219 C 35.609375 211.808594 35.597656 211.792969 35.585938 211.773438 C 35.578125 211.761719 35.574219 211.75 35.566406 211.738281 C 35 210.8125 34.910156 209.539062 35.183594 208.542969 C 35.714844 206.25 38.285156 205.011719 40.570312 205.597656 C 40.960938 207.492188 42.464844 209.09375 44.703125 208.839844 C 44.789062 208.933594 44.863281 209.039062 44.933594 209.144531 C 47.046875 213.1875 43.847656 218.933594 39.617188 220.507812 C 39.1875 220.679688 38.746094 220.820312 38.296875 220.941406 C 37.90625 220.960938 37.519531 220.980469 37.128906 221 C 36.695312 221.011719 36.261719 221.023438 35.828125 221.046875 C 35.8125 221.046875 35.800781 221.050781 35.785156 221.050781 C 34.984375 221.070312 34.1875 221.070312 33.386719 221.03125 Z M 48.5625 217.066406 C 48.320312 217.605469 48.078125 218.160156 47.671875 218.613281 C 46.777344 219.457031 45.652344 219.929688 44.449219 220.214844 C 44.367188 220.195312 44.265625 220.242188 44.167969 220.261719 C 44.003906 220.300781 43.839844 220.335938 43.675781 220.371094 C 43.089844 220.472656 42.492188 220.539062 41.90625 220.59375 C 41.804688 220.617188 41.703125 220.640625 41.605469 220.664062 C 41.402344 220.683594 41.199219 220.699219 40.996094 220.71875 C 40.714844 220.738281 40.433594 220.765625 40.148438 220.792969 C 40.980469 220.445312 41.75 220.023438 42.324219 219.5625 C 45.027344 217.398438 46.804688 213.898438 46.1875 210.515625 C 46.050781 209.894531 45.851562 209.210938 45.421875 208.707031 C 46.816406 208.328125 47.667969 207.074219 47.609375 205.683594 C 47.613281 205.074219 47.441406 204.417969 46.890625 204.058594 C 45.960938 203.347656 44.476562 203.996094 44.449219 205.144531 C 44.410156 206.390625 46.007812 206.613281 46.867188 205.941406 C 46.871094 205.941406 46.882812 205.929688 46.882812 205.929688 C 46.878906 206.148438 46.84375 206.371094 46.785156 206.582031 C 46.550781 207.535156 45.847656 208.167969 44.925781 208.355469 C 44.917969 208.359375 44.90625 208.359375 44.898438 208.363281 C 44.871094 208.367188 44.84375 208.371094 44.816406 208.378906 C 44.8125 208.378906 44.808594 208.378906 44.800781 208.378906 C 44.769531 208.386719 44.738281 208.390625 44.707031 208.394531 C 44.699219 208.394531 44.691406 208.394531 44.679688 208.394531 C 44.648438 208.398438 44.617188 208.402344 44.585938 208.40625 C 44.585938 208.40625 44.582031 208.40625 44.582031 208.40625 C 44.546875 208.410156 44.515625 208.410156 44.480469 208.414062 C 44.472656 208.414062 44.464844 208.414062 44.457031 208.414062 C 44.386719 208.417969 44.3125 208.417969 44.238281 208.417969 C 42.75 208.402344 41.71875 207.140625 41.363281 205.867188 C 41.351562 205.824219 41.339844 205.78125 41.332031 205.738281 C 41.332031 205.738281 41.328125 205.738281 41.328125 205.734375 C 41.320312 205.695312 41.308594 205.65625 41.296875 205.613281 C 41.296875 205.601562 41.292969 205.589844 41.289062 205.578125 C 41.285156 205.550781 41.277344 205.519531 41.269531 205.492188 C 41.265625 205.476562 41.265625 205.464844 41.261719 205.449219 C 41.257812 205.421875 41.25 205.394531 41.246094 205.367188 C 41.242188 205.351562 41.242188 205.339844 41.238281 205.324219 C 41.027344 204.046875 41.449219 202.703125 42.304688 201.6875 C 43.242188 200.5625 44.679688 199.742188 46.199219 199.664062 C 47.117188 199.617188 47.886719 199.933594 48.421875 200.652344 C 49.414062 201.902344 49.917969 203.4375 50.253906 204.953125 C 50.492188 206.359375 50.59375 207.796875 50.59375 209.21875 C 50.585938 209.285156 50.582031 209.355469 50.574219 209.421875 C 50.554688 209.570312 50.53125 209.714844 50.511719 209.863281 C 50.464844 210.136719 50.40625 210.40625 50.359375 210.679688 C 50.324219 210.796875 50.300781 210.929688 50.316406 211.050781 C 49.945312 213.109375 49.386719 215.136719 48.5625 217.066406 Z M 46.789062 205 C 46.722656 205.453125 46.234375 205.839844 45.757812 205.875 C 44.917969 205.785156 45.0625 204.554688 45.703125 204.265625 C 46.199219 204.050781 46.671875 204.585938 46.789062 205 Z M 46.789062 205 " fill-opacity="1" fill-rule="nonzero"/></g><g clip-path="url(#71285570b8)"><path fill="#000000" d="M 353.40625 191.671875 L 353.40625 191.667969 C 353.402344 191.585938 353.398438 191.503906 353.394531 191.417969 C 353.390625 191.316406 353.386719 191.21875 353.378906 191.117188 C 353.375 191.011719 353.367188 190.902344 353.363281 190.796875 C 353.351562 190.609375 353.34375 190.421875 353.332031 190.234375 C 353.332031 190.214844 353.332031 190.195312 353.328125 190.179688 C 352.96875 183.972656 352.15625 177.933594 351.152344 172.996094 C 349.898438 167.585938 346.429688 157.484375 341.539062 154.378906 C 341.472656 154.335938 341.40625 154.296875 341.335938 154.253906 C 341.277344 154.21875 341.21875 154.1875 341.160156 154.152344 C 341.152344 154.148438 341.144531 154.144531 341.136719 154.140625 C 341.117188 154.128906 341.09375 154.117188 341.074219 154.109375 C 341.0625 154.101562 341.054688 154.097656 341.042969 154.09375 C 341.023438 154.082031 341.003906 154.070312 340.980469 154.058594 C 340.972656 154.054688 340.964844 154.050781 340.957031 154.046875 C 340.929688 154.035156 340.898438 154.019531 340.871094 154.007812 C 340.863281 154.003906 340.855469 154 340.847656 153.996094 C 340.824219 153.984375 340.804688 153.976562 340.78125 153.964844 C 340.769531 153.960938 340.761719 153.957031 340.75 153.949219 C 340.730469 153.941406 340.710938 153.933594 340.691406 153.925781 C 340.679688 153.921875 340.667969 153.914062 340.660156 153.910156 C 340.632812 153.902344 340.609375 153.890625 340.585938 153.882812 C 340.582031 153.878906 340.578125 153.878906 340.570312 153.875 C 340.074219 153.671875 339.546875 153.546875 339.003906 153.53125 C 334.4375 153.375 331.363281 156.65625 329.277344 160.3125 C 327.003906 164.222656 325.472656 168.484375 324.398438 172.789062 C 324.1875 173.640625 323.996094 174.496094 323.820312 175.347656 C 323.8125 175.378906 323.808594 175.410156 323.800781 175.4375 C 323.78125 175.535156 323.761719 175.628906 323.742188 175.726562 C 323.734375 175.765625 323.726562 175.804688 323.71875 175.847656 C 323.695312 175.960938 323.675781 176.074219 323.652344 176.1875 C 323.648438 176.203125 323.644531 176.21875 323.640625 176.234375 C 323.226562 178.386719 322.917969 180.542969 322.703125 182.703125 C 322.703125 182.710938 322.703125 182.71875 322.703125 182.726562 C 322.683594 182.902344 322.667969 183.078125 322.652344 183.253906 C 322.652344 183.257812 322.652344 183.257812 322.652344 183.261719 C 322.480469 185.128906 322.386719 186.996094 322.359375 188.859375 C 322.359375 188.863281 322.359375 188.863281 322.359375 188.863281 C 322.359375 189.007812 322.355469 189.152344 322.355469 189.296875 C 322.355469 189.320312 322.355469 189.339844 322.355469 189.363281 C 322.328125 193.210938 322.601562 197.035156 323.152344 200.796875 C 323.152344 200.796875 323.152344 200.800781 323.152344 200.800781 C 323.164062 200.875 323.171875 200.949219 323.183594 201.023438 C 323.1875 201.035156 323.1875 201.046875 323.191406 201.054688 C 323.222656 201.265625 323.253906 201.472656 323.285156 201.679688 C 323.546875 203.335938 323.859375 204.980469 324.226562 206.605469 C 324.238281 206.664062 324.25 206.722656 324.265625 206.777344 C 324.269531 206.808594 324.277344 206.835938 324.285156 206.863281 C 324.300781 206.933594 324.316406 207.007812 324.332031 207.082031 C 324.34375 207.117188 324.351562 207.152344 324.359375 207.1875 C 324.367188 207.230469 324.378906 207.273438 324.386719 207.316406 C 324.566406 208.074219 324.753906 208.832031 324.953125 209.582031 C 324.960938 209.601562 324.964844 209.621094 324.972656 209.640625 C 325.015625 209.804688 325.058594 209.964844 325.101562 210.125 C 325.148438 210.300781 325.199219 210.476562 325.246094 210.652344 C 325.246094 210.65625 325.25 210.660156 325.25 210.664062 C 325.3125 210.890625 325.378906 211.117188 325.445312 211.339844 C 325.449219 211.355469 325.453125 211.367188 325.457031 211.378906 C 325.507812 211.558594 325.558594 211.734375 325.613281 211.910156 C 325.613281 211.914062 325.613281 211.917969 325.617188 211.921875 C 325.671875 212.109375 325.726562 212.296875 325.785156 212.484375 C 325.804688 212.535156 325.824219 212.589844 325.84375 212.644531 C 326.175781 213.605469 326.535156 214.664062 326.96875 215.710938 C 326.972656 215.726562 326.980469 215.738281 326.984375 215.753906 C 327.007812 215.808594 327.03125 215.863281 327.054688 215.921875 C 327.070312 215.957031 327.085938 215.992188 327.101562 216.027344 C 327.121094 216.074219 327.140625 216.117188 327.160156 216.164062 C 327.183594 216.214844 327.207031 216.265625 327.230469 216.316406 C 327.246094 216.347656 327.261719 216.382812 327.277344 216.417969 C 327.300781 216.472656 327.328125 216.53125 327.355469 216.585938 C 327.371094 216.625 327.390625 216.660156 327.40625 216.699219 C 327.417969 216.71875 327.425781 216.738281 327.433594 216.757812 C 327.433594 216.757812 327.4375 216.757812 327.4375 216.757812 C 328.347656 218.648438 329.59375 220.351562 331.53125 221.144531 C 332.097656 221.328125 332.707031 221.339844 333.296875 221.390625 C 334.199219 221.445312 335.105469 221.492188 336.007812 221.5 C 336.550781 221.492188 337.09375 221.480469 337.636719 221.464844 C 337.804688 221.457031 337.972656 221.453125 338.136719 221.445312 C 338.15625 221.445312 338.171875 221.445312 338.191406 221.445312 C 338.347656 221.4375 338.507812 221.433594 338.664062 221.425781 C 338.6875 221.425781 338.710938 221.421875 338.738281 221.421875 C 338.890625 221.414062 339.046875 221.40625 339.199219 221.398438 C 339.226562 221.398438 339.25 221.398438 339.277344 221.394531 C 339.429688 221.386719 339.585938 221.378906 339.742188 221.371094 C 339.753906 221.371094 339.765625 221.367188 339.777344 221.367188 C 339.777344 221.367188 339.777344 221.367188 339.78125 221.367188 C 341.488281 221.265625 343.191406 221.101562 344.882812 220.835938 C 346.511719 220.554688 348.21875 220.085938 349.460938 219 C 350.117188 218.386719 350.441406 217.550781 350.78125 216.757812 C 353.230469 210.179688 353.828125 200.824219 353.40625 191.671875 Z M 352.332031 205.339844 C 352.1875 204.4375 351.964844 203.546875 351.621094 202.683594 C 351.089844 201.429688 350.421875 199.972656 349.027344 199.421875 C 346.570312 198.667969 343.785156 200.074219 342.507812 202.117188 C 341.898438 203.007812 341.679688 204.085938 341.785156 205.117188 C 339.90625 204.769531 337.8125 205.3125 336.628906 206.742188 C 336.570312 206.636719 336.507812 206.542969 336.460938 206.464844 C 333.554688 202.484375 326.644531 205.230469 327.585938 209.953125 C 327.710938 210.625 328.019531 211.292969 328.46875 211.847656 C 327.847656 211.628906 327.265625 211.296875 326.714844 210.960938 C 326.449219 210.800781 326.195312 210.625 325.949219 210.4375 C 325.605469 209.203125 325.296875 207.9375 325.023438 206.675781 C 325.183594 206.503906 325.339844 206.332031 325.492188 206.15625 C 327.609375 203.554688 329.152344 201.570312 333 202.578125 C 334.292969 202.917969 335.765625 203.359375 336.996094 202.621094 C 338.167969 201.964844 338.652344 200.679688 339.453125 199.691406 C 340.761719 198.15625 342.820312 197.433594 344.832031 197.253906 C 346.925781 197.058594 349.101562 197.246094 350.648438 195.566406 C 351.421875 194.8125 352.074219 193.953125 352.640625 193.042969 C 352.777344 197.175781 352.699219 201.28125 352.332031 205.339844 Z M 341.855469 155.414062 C 342.574219 156.003906 343.191406 156.679688 343.742188 157.40625 C 343.464844 157.777344 343.171875 158.140625 342.851562 158.476562 C 341.207031 160.195312 339.050781 161.335938 337.457031 163.09375 C 334.679688 166.277344 334.378906 170.746094 332.027344 174.128906 C 329.925781 177.199219 326.867188 180.496094 323.558594 182.285156 C 323.777344 180.074219 324.101562 177.867188 324.542969 175.679688 C 326.003906 174.632812 327.375 173.390625 328.316406 171.847656 C 330.125 169.039062 330.363281 165.433594 332.574219 162.800781 C 334.796875 160.253906 338.339844 159.136719 340.242188 156.21875 C 340.558594 155.773438 340.835938 155.300781 341.078125 154.8125 C 341.351562 154.992188 341.613281 155.199219 341.855469 155.417969 Z M 329.488281 161.488281 C 331.316406 158.121094 333.9375 154.34375 338.148438 154.058594 C 338.332031 154.027344 338.515625 154.011719 338.699219 154.011719 C 339.265625 154.011719 339.8125 154.152344 340.324219 154.386719 C 340.140625 154.785156 339.929688 155.171875 339.699219 155.542969 C 337.394531 159.445312 332.351562 160.335938 330.472656 164.523438 C 328.4375 168.871094 328.574219 171.546875 324.765625 174.632812 C 325.761719 170.117188 327.285156 165.6875 329.488281 161.484375 Z M 328.996094 178.824219 C 331.980469 176.007812 334.171875 172.472656 335.414062 168.53125 C 337.273438 162.984375 338.949219 162.71875 343.082031 159.195312 C 343.476562 158.828125 343.835938 158.425781 344.171875 158.003906 C 344.933594 159.117188 345.566406 160.324219 346.175781 161.515625 C 346.234375 161.625 346.289062 161.738281 346.34375 161.847656 C 345.0625 162.503906 343.863281 163.304688 342.832031 164.3125 C 339.382812 167.324219 339.09375 172.027344 337.558594 175.964844 C 335.117188 181.808594 329.125 186.542969 323.195312 188.609375 C 323.230469 186.726562 323.324219 184.832031 323.496094 182.941406 C 325.601562 182.023438 327.378906 180.414062 328.996094 178.824219 Z M 338.425781 175.894531 C 340.484375 170.054688 340.363281 165.757812 346.613281 162.382812 C 350.277344 169.855469 351.554688 178.101562 352.210938 186.078125 C 352.222656 186.191406 352.230469 186.304688 352.242188 186.417969 C 351.011719 188.414062 349.605469 190.367188 347.421875 191.363281 C 346.15625 191.945312 344.734375 191.753906 343.386719 191.746094 C 339.691406 191.601562 337.742188 193.742188 335.5 196.179688 C 334.65625 197.09375 333.644531 198.007812 332.269531 197.839844 C 330.597656 197.664062 328.949219 197.117188 327.285156 197.660156 C 325.886719 198.03125 324.734375 198.886719 323.828125 199.933594 C 323.605469 198.328125 323.449219 196.910156 323.363281 195.824219 C 323.226562 193.617188 323.164062 191.378906 323.1875 189.128906 C 329.527344 187.203125 336.003906 181.9375 338.425781 175.894531 Z M 324.390625 200.277344 C 325.398438 198.96875 326.96875 198.011719 328.691406 197.886719 C 329.695312 197.816406 330.667969 198.097656 331.652344 198.234375 C 333.046875 198.46875 334.402344 198.152344 335.394531 197.152344 C 338.621094 193.96875 339.707031 191.777344 344.898438 192.238281 C 346.304688 192.300781 347.726562 191.976562 348.898438 191.191406 C 350.316406 190.238281 351.390625 188.9375 352.332031 187.539062 C 352.441406 188.945312 352.527344 190.351562 352.589844 191.753906 C 351.878906 193.117188 351 194.394531 349.871094 195.457031 C 348.898438 196.464844 347.449219 196.660156 346.101562 196.699219 C 343.367188 196.792969 340.363281 197.445312 338.652344 199.660156 C 338.074219 200.425781 337.667969 201.320312 336.9375 201.972656 C 336.226562 202.652344 335.164062 202.683594 334.246094 202.417969 C 329.308594 200.992188 327.671875 202.425781 324.859375 205.902344 C 324.492188 204.140625 324.191406 202.410156 323.957031 200.828125 C 324.101562 200.644531 324.246094 200.460938 324.390625 200.277344 Z M 329.101562 212.488281 C 329.683594 212.957031 330.394531 213.257812 331.183594 213.273438 C 332.066406 213.277344 332.933594 212.796875 333.28125 212.019531 C 333.828125 210.976562 333.921875 209.066406 332.410156 208.746094 C 331.246094 208.476562 330.132812 209.527344 330.683594 210.609375 C 330.972656 211.109375 331.835938 211.390625 332.308594 210.984375 C 332.421875 210.703125 331.9375 210.621094 331.738281 210.707031 C 331.597656 210.785156 331.414062 210.53125 331.371094 210.417969 C 331.285156 210.183594 331.304688 209.910156 331.402344 209.679688 C 331.582031 209.242188 332.171875 208.921875 332.535156 209.382812 C 333.1875 210.238281 332.832031 211.964844 331.957031 212.570312 C 331.390625 212.964844 330.742188 212.859375 330.175781 212.550781 C 330.152344 212.539062 330.132812 212.527344 330.109375 212.515625 C 330.105469 212.511719 330.097656 212.507812 330.09375 212.507812 C 330.070312 212.492188 330.050781 212.480469 330.027344 212.464844 C 330.023438 212.460938 330.015625 212.457031 330.011719 212.457031 C 329.988281 212.441406 329.964844 212.425781 329.945312 212.410156 C 329.9375 212.40625 329.933594 212.40625 329.929688 212.402344 C 329.90625 212.386719 329.882812 212.371094 329.863281 212.355469 C 329.855469 212.351562 329.851562 212.347656 329.847656 212.34375 C 329.824219 212.328125 329.804688 212.3125 329.78125 212.296875 C 329.777344 212.292969 329.773438 212.289062 329.769531 212.285156 C 329.746094 212.269531 329.722656 212.25 329.703125 212.234375 C 329.699219 212.230469 329.695312 212.230469 329.695312 212.226562 C 329.644531 212.1875 329.597656 212.148438 329.550781 212.105469 C 329.402344 211.96875 329.265625 211.824219 329.152344 211.683594 C 327.980469 210.179688 327.9375 207.898438 329.316406 206.507812 C 331.089844 204.613281 334.09375 204.367188 335.722656 206.578125 C 335.851562 206.761719 335.957031 206.960938 336.042969 207.164062 C 336.078125 207.257812 336.105469 207.351562 336.164062 207.433594 C 335.269531 209 335.433594 211.292969 336.714844 212.527344 C 336.710938 212.683594 336.691406 212.84375 336.667969 212.996094 C 336.386719 214.3125 335.238281 215.351562 333.964844 215.859375 C 330.980469 217.066406 328.402344 214.792969 326.605469 212.597656 C 326.464844 212.175781 326.332031 211.746094 326.203125 211.3125 C 327.09375 211.871094 328.066406 212.316406 329.101562 212.488281 Z M 338.699219 213.386719 C 339.519531 213.460938 340.421875 213.320312 341.128906 212.910156 C 341.195312 213.320312 341.136719 213.761719 341.007812 214.144531 C 339.5 218.097656 334.019531 219.078125 330.230469 217.679688 C 329.515625 217.433594 328.855469 217.082031 328.242188 216.660156 C 327.839844 215.863281 327.460938 214.980469 327.113281 214.042969 C 327.296875 214.226562 327.484375 214.410156 327.671875 214.589844 C 328.703125 215.554688 329.992188 216.320312 331.433594 216.5625 C 333.78125 216.949219 336.414062 215.671875 337.265625 213.535156 C 337.324219 213.371094 337.371094 213.199219 337.402344 213.023438 C 337.777344 213.222656 338.207031 213.351562 338.703125 213.386719 Z M 334.675781 221.03125 C 333.488281 220.921875 332.136719 221.097656 331.128906 220.375 C 330.246094 219.789062 329.441406 218.804688 328.71875 217.546875 C 329.890625 218.140625 331.214844 218.5 332.507812 218.660156 C 335.316406 218.914062 338.515625 218.296875 340.445312 216.226562 C 341.339844 215.277344 342.113281 214.007812 341.800781 212.699219 C 341.777344 212.621094 341.75 212.535156 341.71875 212.445312 C 341.851562 212.304688 341.96875 212.148438 342.066406 211.972656 C 342.675781 210.964844 342.234375 209.398438 341.011719 209.023438 C 340.015625 208.703125 338.914062 209.507812 338.953125 210.492188 C 338.96875 210.765625 339.132812 211.039062 339.398438 211.152344 C 339.574219 211.222656 339.867188 211.21875 339.953125 211.027344 C 340 210.828125 339.699219 210.804688 339.6875 210.597656 C 339.621094 210.210938 339.839844 209.800781 340.148438 209.554688 C 340.839844 209.046875 341.441406 209.9375 341.570312 210.511719 C 341.6875 210.96875 341.597656 211.457031 341.355469 211.863281 C 341.34375 211.878906 341.335938 211.894531 341.328125 211.910156 C 341.324219 211.914062 341.320312 211.917969 341.316406 211.921875 C 341.304688 211.941406 341.292969 211.957031 341.28125 211.976562 C 341.28125 211.976562 341.28125 211.980469 341.277344 211.980469 C 341.265625 212 341.25 212.019531 341.238281 212.039062 C 341.234375 212.042969 341.234375 212.046875 341.230469 212.046875 C 341.21875 212.0625 341.207031 212.078125 341.195312 212.09375 C 341.1875 212.101562 341.183594 212.105469 341.179688 212.113281 C 341.167969 212.125 341.160156 212.136719 341.148438 212.148438 C 341.144531 212.15625 341.136719 212.160156 341.132812 212.167969 C 341.121094 212.179688 341.113281 212.191406 341.101562 212.199219 C 341.097656 212.207031 341.089844 212.214844 341.085938 212.21875 C 341.074219 212.230469 341.0625 212.242188 341.050781 212.253906 C 341.046875 212.257812 341.039062 212.265625 341.035156 212.269531 C 341.019531 212.285156 341 212.300781 340.984375 212.316406 C 340.363281 212.886719 339.425781 213.046875 338.59375 212.929688 C 338.128906 212.851562 337.746094 212.667969 337.429688 212.410156 C 337.414062 212.398438 337.398438 212.382812 337.386719 212.371094 C 337.371094 212.359375 337.359375 212.351562 337.347656 212.339844 C 337.332031 212.324219 337.316406 212.308594 337.300781 212.296875 C 337.28125 212.277344 337.261719 212.257812 337.246094 212.242188 C 337.234375 212.230469 337.222656 212.21875 337.210938 212.207031 C 337.199219 212.191406 337.183594 212.179688 337.171875 212.164062 C 337.164062 212.15625 337.152344 212.144531 337.144531 212.132812 C 337.121094 212.105469 337.097656 212.082031 337.078125 212.050781 C 337.070312 212.042969 337.0625 212.035156 337.054688 212.023438 C 337.039062 212.007812 337.027344 211.992188 337.015625 211.976562 C 337.007812 211.964844 337 211.957031 336.992188 211.945312 C 336.96875 211.914062 336.949219 211.882812 336.925781 211.847656 C 336.921875 211.839844 336.914062 211.832031 336.910156 211.824219 C 336.898438 211.808594 336.886719 211.792969 336.875 211.773438 C 336.871094 211.761719 336.863281 211.75 336.855469 211.738281 C 336.289062 210.8125 336.199219 209.539062 336.472656 208.542969 C 337.003906 206.25 339.574219 205.011719 341.859375 205.597656 C 342.25 207.492188 343.753906 209.09375 345.992188 208.839844 C 346.078125 208.933594 346.152344 209.039062 346.222656 209.144531 C 348.335938 213.1875 345.136719 218.933594 340.90625 220.507812 C 340.476562 220.679688 340.035156 220.820312 339.585938 220.941406 C 339.195312 220.960938 338.808594 220.980469 338.417969 221 C 337.984375 221.011719 337.550781 221.023438 337.117188 221.046875 C 337.101562 221.046875 337.089844 221.050781 337.074219 221.050781 C 336.273438 221.070312 335.476562 221.070312 334.675781 221.03125 Z M 349.851562 217.066406 C 349.609375 217.605469 349.367188 218.160156 348.960938 218.613281 C 348.066406 219.457031 346.941406 219.929688 345.738281 220.214844 C 345.65625 220.195312 345.554688 220.242188 345.457031 220.261719 C 345.292969 220.300781 345.128906 220.335938 344.964844 220.371094 C 344.378906 220.472656 343.78125 220.539062 343.195312 220.59375 C 343.09375 220.617188 342.992188 220.640625 342.894531 220.664062 C 342.691406 220.683594 342.488281 220.699219 342.285156 220.71875 C 342.003906 220.738281 341.722656 220.765625 341.4375 220.792969 C 342.269531 220.445312 343.039062 220.023438 343.613281 219.5625 C 346.316406 217.398438 348.09375 213.898438 347.476562 210.515625 C 347.339844 209.894531 347.140625 209.210938 346.710938 208.707031 C 348.105469 208.328125 348.957031 207.074219 348.898438 205.683594 C 348.902344 205.074219 348.730469 204.417969 348.179688 204.058594 C 347.25 203.347656 345.765625 203.996094 345.738281 205.144531 C 345.699219 206.390625 347.296875 206.613281 348.15625 205.941406 C 348.160156 205.941406 348.171875 205.929688 348.171875 205.929688 C 348.167969 206.148438 348.132812 206.371094 348.074219 206.582031 C 347.839844 207.535156 347.136719 208.167969 346.214844 208.355469 C 346.207031 208.359375 346.195312 208.359375 346.1875 208.363281 C 346.160156 208.367188 346.132812 208.371094 346.105469 208.378906 C 346.101562 208.378906 346.097656 208.378906 346.089844 208.378906 C 346.058594 208.386719 346.027344 208.390625 345.996094 208.394531 C 345.988281 208.394531 345.980469 208.394531 345.96875 208.394531 C 345.9375 208.398438 345.90625 208.402344 345.875 208.40625 C 345.875 208.40625 345.871094 208.40625 345.871094 208.40625 C 345.835938 208.410156 345.804688 208.410156 345.769531 208.414062 C 345.761719 208.414062 345.753906 208.414062 345.746094 208.414062 C 345.675781 208.417969 345.601562 208.417969 345.527344 208.417969 C 344.039062 208.402344 343.007812 207.140625 342.652344 205.867188 C 342.640625 205.824219 342.628906 205.78125 342.621094 205.738281 C 342.621094 205.738281 342.621094 205.738281 342.617188 205.734375 C 342.609375 205.695312 342.597656 205.65625 342.585938 205.613281 C 342.585938 205.601562 342.582031 205.589844 342.578125 205.578125 C 342.574219 205.550781 342.566406 205.519531 342.558594 205.492188 C 342.554688 205.476562 342.554688 205.464844 342.550781 205.449219 C 342.546875 205.421875 342.539062 205.394531 342.535156 205.367188 C 342.53125 205.351562 342.53125 205.339844 342.527344 205.324219 C 342.316406 204.046875 342.738281 202.703125 343.59375 201.6875 C 344.53125 200.5625 345.96875 199.742188 347.488281 199.664062 C 348.40625 199.617188 349.175781 199.933594 349.710938 200.652344 C 350.703125 201.902344 351.207031 203.4375 351.542969 204.953125 C 351.78125 206.359375 351.882812 207.796875 351.882812 209.21875 C 351.875 209.285156 351.871094 209.355469 351.863281 209.421875 C 351.84375 209.570312 351.820312 209.714844 351.800781 209.863281 C 351.753906 210.136719 351.695312 210.40625 351.648438 210.679688 C 351.613281 210.796875 351.589844 210.929688 351.605469 211.050781 C 351.234375 213.109375 350.675781 215.136719 349.851562 217.066406 Z M 348.078125 205 C 348.011719 205.453125 347.523438 205.839844 347.046875 205.875 C 346.207031 205.785156 346.351562 204.554688 346.992188 204.265625 C 347.488281 204.050781 347.960938 204.585938 348.078125 205 Z M 348.078125 205 " fill-opacity="1" fill-rule="nonzero"/></g></svg>